<svg width="56" height="52" viewBox="0 0 56 52" fill="none" xmlns="http://www.w3.org/2000/svg">
<g filter="url(#filter0_d_1799_717)">
<path fill-rule="evenodd" clip-rule="evenodd" d="M33.8229 26.8179H26.1353L27.1173 29.1499C27.1262 29.171 27.1308 29.1936 27.1308 29.2165V30.0921H32.8275V29.2165C32.8275 29.1936 32.8321 29.171 32.841 29.1499L33.8229 26.8179Z" fill="#F7CE47"/>
<path fill-rule="evenodd" clip-rule="evenodd" d="M32.8275 33.339V30.0921H27.1308V40.3865C29.2633 38.4528 31.3208 36.0589 32.8275 33.339ZM15.2785 8.77634C15.1335 8.77634 15.045 8.92931 15.1214 9.04764L23.6093 22.1914H28.6242L20.9594 8.86803C20.9268 8.81146 20.8649 8.77634 20.7976 8.77634H15.2785Z" fill="#F7CE47"/>
<path d="M9 24.4964C9 24.0016 9.41737 23.6005 9.93222 23.6005H33.2125C33.7273 23.6005 34.1447 24.0016 34.1447 24.4964C34.1447 24.9912 33.7273 25.3923 33.2125 25.3923H9.93222C9.41737 25.3923 9 24.9912 9 24.4964Z" fill="#F7CE47"/>
<path d="M11.4066 20.0185C10.6383 20.0185 10.1997 20.8615 10.6607 21.4522C10.8368 21.6778 11.1131 21.8106 11.4066 21.8106L17.9332 21.8107C18.7639 21.8107 19.1799 20.8455 18.5925 20.281C18.4176 20.113 18.1805 20.0185 17.9332 20.0185L11.4066 20.0185Z" fill="#F7CE47"/>
<path d="M11.4065 27.187C11.113 27.187 10.8367 27.3197 10.6606 27.5454C10.1996 28.1361 10.6382 28.9791 11.4065 28.9791H17.9332C18.1805 28.9791 18.4176 28.8847 18.5925 28.7167C19.1799 28.1522 18.7639 27.187 17.9332 27.187L11.4065 27.187Z" fill="#F7CE47"/>
<path d="M35.524 22.5556C34.413 13.0148 25.5061 8.20988 20.4911 7C35.0577 7.71111 39.9338 17.6667 40.5511 22.5556C40.6376 23.2411 40.906 25.8296 38.9308 31.5185C36.9557 37.2074 29.4152 41.5432 25.8918 43C30.0324 40.1605 36.635 32.0963 35.524 22.5556Z" fill="#F7CE47"/>
<path fill-rule="evenodd" clip-rule="evenodd" d="M41.2178 19.4721C41.6959 20.5335 41.9888 21.5181 42.128 22.3626C42.2287 22.9739 42.5044 24.9875 41.0268 29.1326L48.9131 24.3957C49.029 24.3261 49.029 24.164 48.9131 24.0944L41.2178 19.4721Z" fill="#F7CE47"/>
</g>
<defs>
<filter id="filter0_d_1799_717" x="0" y="0" width="56" height="52" filterUnits="userSpaceOnUse" color-interpolation-filters="sRGB">
<feFlood flood-opacity="0" result="BackgroundImageFix"/>
<feColorMatrix in="SourceAlpha" type="matrix" values="0 0 0 0 0 0 0 0 0 0 0 0 0 0 0 0 0 0 127 0" result="hardAlpha"/>
<feOffset dx="-1" dy="1"/>
<feGaussianBlur stdDeviation="4"/>
<feComposite in2="hardAlpha" operator="out"/>
<feColorMatrix type="matrix" values="0 0 0 0 0.8625 0 0 0 0 0.393088 0 0 0 0 0.104219 0 0 0 0.7 0"/>
<feBlend mode="normal" in2="BackgroundImageFix" result="effect1_dropShadow_1799_717"/>
<feBlend mode="normal" in="SourceGraphic" in2="effect1_dropShadow_1799_717" result="shape"/>
</filter>
</defs>
</svg>
